<svg width="51" height="67" viewBox="0 0 51 67" fill="none" xmlns="http://www.w3.org/2000/svg">
<path d="M42.9894 63.5129C40.8009 63.5129 38.8765 62.8714 37.2163 61.5885C35.5749 60.3056 34.292 58.3341 33.3676 55.6739L22.9533 25.9028L20.9157 21.1484L19.2178 16.7337C18.4443 14.7339 17.6141 13.234 16.7274 12.2341C15.8596 11.2341 14.803 10.6399 13.5579 10.4512C12.3127 10.2625 10.7656 10.3946 8.91673 10.8474L7.21876 4.96108C7.55835 4.81014 8.17151 4.64035 9.05823 4.45168C9.94495 4.26302 10.9543 4.16869 12.0863 4.16869C15.1992 4.16869 17.8028 4.97994 19.897 6.60245C21.9911 8.22496 23.6514 10.6965 24.8777 14.0169L39.7067 54.0891C39.9708 54.8249 40.3198 55.5607 40.7537 56.2965C41.1877 57.0134 41.9706 57.3719 43.1026 57.3719C43.329 57.3719 43.6026 57.353 43.9233 57.3153C44.2629 57.2775 44.5176 57.2587 44.6874 57.2587L46.159 63.145C45.6118 63.2771 45.0647 63.3714 44.5176 63.428C43.9893 63.5035 43.4799 63.5318 42.9894 63.5129ZM4.95479 62.9186L21.9345 16.8469L24.6513 29.5251H23.7457L12.1995 62.9186H4.95479Z" fill="black"/>
<path fill-rule="evenodd" clip-rule="evenodd" d="M44.6874 57.2587C44.5176 57.2587 44.2629 57.2775 43.9233 57.3153C43.6026 57.353 43.329 57.3719 43.1026 57.3719C41.9706 57.3719 41.1877 57.0134 40.7537 56.2965C40.3198 55.5607 39.9708 54.8249 39.7067 54.0891L24.8777 14.0169C24.7675 13.7185 24.6537 13.427 24.5365 13.1423C23.7215 11.1628 22.737 9.51475 21.5831 8.19823C21.0564 7.59721 20.4944 7.06529 19.897 6.60245L21.9306 3.97761C24.6551 6.08853 26.6213 9.15377 27.9925 12.8666L42.832 52.9672C42.9565 53.3142 43.1114 53.6722 43.3005 54.0412C43.3639 54.0361 43.4417 54.0285 43.5352 54.0175L43.5565 54.015C43.9221 53.9744 44.3264 53.9382 44.6873 53.9382H47.2799L50.1921 65.5873L46.938 66.3728C46.271 66.5338 45.5989 66.6514 44.9225 66.7242C44.2569 66.8158 43.5907 66.8548 42.9273 66.8332C40.0621 66.8209 37.4377 65.956 35.1859 64.216L35.1714 64.2047C32.88 62.4137 31.2949 59.8233 30.2325 56.7683C30.232 56.7668 30.233 56.7697 30.2325 56.7683L23.9999 38.951L14.5647 66.2391H0.192139L17.0783 20.4212L16.1208 17.9316C16.1204 17.9304 16.1212 17.9327 16.1208 17.9316C15.4148 16.1071 14.7568 15.0165 14.243 14.4372L14.2195 14.4107C13.8401 13.9736 13.4828 13.7982 13.0604 13.7342C12.4052 13.6349 11.3286 13.6753 9.70649 14.0726L6.60988 14.8309L3.22647 3.10174L5.8701 1.92679C6.56165 1.61943 7.48481 1.39163 8.36714 1.2039C9.52887 0.956722 10.7766 0.848206 12.0862 0.848206C15.8015 0.848206 19.1567 1.82847 21.9306 3.97761L19.897 6.60245C17.8028 4.97994 15.1992 4.16869 12.0863 4.16869C11.5153 4.16869 10.9754 4.19269 10.4668 4.2407C9.96711 4.28786 9.49765 4.35819 9.05823 4.45168C8.95376 4.47391 8.85301 4.49588 8.75613 4.51758C8.03075 4.68009 7.51834 4.82793 7.21876 4.96108L8.91673 10.8474C10.7656 10.3946 12.3127 10.2625 13.5579 10.4512C14.803 10.6399 15.8596 11.2341 16.7274 12.2341C17.4592 13.0592 18.1523 14.2248 18.8069 15.7309C18.9456 16.0499 19.0826 16.3842 19.2178 16.7337L20.6264 20.3962L4.95479 62.9186H12.1995L23.7457 29.5251H24.2204L33.3676 55.6739C34.292 58.3341 35.5749 60.3056 37.2163 61.5885C38.8356 62.8398 40.7061 63.4809 42.8279 63.5117C42.8815 63.5125 42.9354 63.5129 42.9894 63.5129C43.4799 63.5318 43.9893 63.5035 44.5176 63.428C45.0647 63.3714 45.6118 63.2771 46.159 63.145L44.6874 57.2587Z" fill="black"/>
</svg>
